<svg width="26" height="26" viewBox="0 0 26 26" fill="none" xmlns="http://www.w3.org/2000/svg">
<path fill-rule="evenodd" clip-rule="evenodd" d="M1.73791 4.09067C2.13332 3.43598 4.31187 1.05471 5.86652 1.12659C6.33125 1.1651 6.74205 1.44624 7.07583 1.7723C7.84224 2.5207 10.0362 5.35127 10.1607 5.94691C10.4637 7.40776 8.72291 8.24988 9.25567 9.72229C10.6139 13.0458 12.9542 15.386 16.2792 16.7429C17.7504 17.2756 18.5925 15.5349 20.0535 15.8391C20.6479 15.9637 23.4799 18.1575 24.2283 18.9239C24.5531 19.2564 24.8355 19.6684 24.874 20.1331C24.9318 21.7699 22.4028 23.9791 21.9098 24.2615C20.7467 25.0934 19.2293 25.0793 17.3794 24.2192C12.2173 22.0715 3.96782 13.9778 1.78028 8.62087C0.943261 6.78132 0.885491 5.25371 1.73791 4.09067Z" stroke="white" stroke-width="1.5" stroke-linecap="round" stroke-linejoin="round"/>
<path opacity="0.4" d="M3.47864 2.74292L5.31489 5.46667" stroke="white" stroke-width="1.5" stroke-linecap="round" stroke-linejoin="round"/>
<path opacity="0.4" d="M20.3303 20.5835L23.0653 22.721" stroke="white" stroke-width="1.5" stroke-linecap="round" stroke-linejoin="round"/>
</svg>
