<svg width="47" height="50" viewBox="0 0 47 50" fill="none" xmlns="http://www.w3.org/2000/svg">
<path d="M23.4999 49.1103C36.4786 49.1103 46.9999 38.1166 46.9999 24.5553C46.9999 10.9939 36.4786 0.000244141 23.4999 0.000244141C10.5212 0.000244141 -9.15527e-05 10.9939 -9.15527e-05 24.5553C-9.15527e-05 38.1166 10.5212 49.1103 23.4999 49.1103Z" fill="#13455E"/>
<path d="M46.7781 21.1818L38.0296 12.0405L8.28049 38.5003L17.714 48.3595C19.5651 48.8491 21.5032 49.1102 23.4998 49.1102C36.4784 49.1102 46.9998 38.1165 46.9998 24.5552C46.9998 23.4106 46.923 22.2847 46.7781 21.1818Z" fill="#082E42"/>
<path d="M11.5656 32.7394H35.4348C37.496 32.7394 39.1668 30.9934 39.1668 28.8399V14.8124C39.1668 12.6587 37.4958 10.9127 35.4348 10.9127H11.5656C9.50439 10.9127 7.83344 12.6587 7.83344 14.8124V28.8399C7.83344 30.9934 9.50439 32.7394 11.5656 32.7394Z" fill="#4C4C4C"/>
<path d="M35.4347 10.9127H23.4473V32.7394H35.4347C37.4959 32.7394 39.1667 30.9934 39.1667 28.8399V14.8123C39.1667 12.6587 37.4957 10.9127 35.4347 10.9127Z" fill="#4C4C4C"/>
<path d="M9.5976 39.1159H37.4026C38.3769 39.1159 39.1668 38.2907 39.1668 37.2726V35.9775C39.1668 34.9594 38.3769 34.1342 37.4026 34.1342H9.5976C8.62326 34.1342 7.83344 34.9594 7.83344 35.9775V37.2726C7.83344 38.2907 8.62326 39.1159 9.5976 39.1159Z" fill="#4C4C4C"/>
<path d="M37.4025 34.1342H23.4473V39.1158H37.4025C38.3768 39.1158 39.1667 38.2905 39.1667 37.2724V35.9774C39.1667 34.9594 38.3768 34.1342 37.4025 34.1342Z" fill="#4C4C4C"/>
<path d="M34.3535 30.0113H12.6469C11.4308 30.0113 10.4447 28.9809 10.4447 27.71V15.9423C10.4447 14.6716 11.4308 13.6412 12.6469 13.6412H34.3535C35.5698 13.6412 36.5558 14.6716 36.5558 15.9423V27.71C36.5558 28.9809 35.5698 30.0113 34.3535 30.0113Z" fill="white"/>
<path d="M34.353 13.6412H23.447V30.0113H34.353C35.5693 30.0113 36.5554 28.9809 36.5554 27.71V15.9425C36.5554 14.6714 35.5693 13.6412 34.353 13.6412Z" fill="white"/>
<path d="M17.5926 19.7413C17.5926 18.0368 18.915 16.6552 20.5462 16.6552C22.1774 16.6552 23.4997 18.0368 23.4997 19.7413C23.4997 18.0368 24.8221 16.6552 26.4533 16.6552C28.0845 16.6552 29.4069 18.0368 29.4069 19.7413C29.4069 22.9626 23.4997 26.9423 23.4997 26.9423C23.4997 26.9423 17.5926 22.9626 17.5926 19.7413Z" fill="#59ABB3"/>
<path d="M26.4536 16.6552C24.8223 16.6552 23.5 18.0368 23.5 19.7413C23.5 19.5457 23.4805 19.355 23.4473 19.1695V26.9064C23.4797 26.9287 23.5 26.9425 23.5 26.9425C23.5 26.9425 29.4071 22.9627 29.4071 19.7415C29.4071 18.0368 28.0848 16.6552 26.4536 16.6552Z" fill="#59ABB3"/>
</svg>
