<svg width="47" height="47" viewBox="0 0 47 47" fill="none" xmlns="http://www.w3.org/2000/svg">
<g clip-path="url(#clip0)">
<path d="M23.5002 47C36.4789 47 47.0002 36.4787 47.0002 23.5C47.0002 10.5213 36.4789 0 23.5002 0C10.5216 0 0.000244141 10.5213 0.000244141 23.5C0.000244141 36.4787 10.5216 47 23.5002 47Z" fill="#13455E"/>
<path d="M35.4265 13.1747L14.5065 38.4149L23.0863 46.9947C23.2241 46.9971 23.3618 47 23.5002 47C36.0706 47 46.3358 37.1301 46.9692 24.7172L35.4265 13.1747Z" fill="#082E42"/>
<path d="M23.5002 8.58496C14.8478 8.58496 7.83356 14.4302 7.83356 21.6405C7.83356 26.0618 10.4713 29.9692 14.5064 32.331V38.4149L20.4557 34.4489C21.4406 34.6106 22.4585 34.6961 23.5004 34.6961C32.1528 34.6961 39.167 28.8508 39.167 21.6405C39.167 14.4302 32.1527 8.58496 23.5002 8.58496Z" fill="#59ABB3"/>
<path d="M23.5002 8.58496C23.4296 8.58496 23.3595 8.58639 23.2892 8.58718V34.6916C23.3598 34.6924 23.4295 34.6959 23.5002 34.6959C32.1526 34.6959 39.1669 28.8507 39.1669 21.6404C39.1669 14.4301 32.1526 8.58496 23.5002 8.58496Z" fill="#59ABB3"/>
<path d="M28.7225 20.4142L25.241 20.4141V16.9327H21.7595V20.4141H18.278V23.8955H21.7595V27.377H25.241V23.8955H28.7225V20.4142Z" fill="white"/>
<path d="M25.2409 20.4141V16.9327H23.2892V27.377H25.2409V23.8955H28.7224V20.4142L25.2409 20.4141Z" fill="#E3E5E4"/>
</g>
<defs>
<clipPath id="clip0">
<rect width="47" height="47" fill="white" transform="translate(0.000244141)"/>
</clipPath>
</defs>
</svg>
