<svg width="52" height="52" viewBox="0 0 52 52" fill="none" xmlns="http://www.w3.org/2000/svg">
<g clip-path="url(#clip0)">
<path d="M26 51.999C40.3594 51.999 52 40.3584 52 25.999C52 11.6396 40.3594 -0.000976562 26 -0.000976562C11.6406 -0.000976562 0 11.6396 0 25.999C0 40.3584 11.6406 51.999 26 51.999Z" fill="#007AB9"/>
<path d="M41.5346 28.092V38.8113H35.3198V28.8104C35.3198 26.2993 34.4226 24.5844 32.1724 24.5844C30.4552 24.5844 29.4351 25.739 28.9846 26.8569C28.821 27.2564 28.7788 27.8111 28.7788 28.3715V38.8108H22.5636C22.5636 38.8108 22.6471 21.8726 22.5636 20.1193H28.7793V22.7681C28.7668 22.7889 28.7492 22.8093 28.738 22.8293H28.7793V22.7681C29.6052 21.4972 31.0781 19.6804 34.3804 19.6804C38.4692 19.6804 41.5346 22.3519 41.5346 28.092ZM16.062 11.1094C13.9361 11.1094 12.5452 12.5049 12.5452 14.3384C12.5452 16.133 13.8957 17.5688 15.9804 17.5688H16.0208C18.1884 17.5688 19.5362 16.133 19.5362 14.3384C19.495 12.5049 18.1884 11.1094 16.062 11.1094ZM12.9146 38.8113H19.1274V20.1193H12.9146V38.8113Z" fill="#F1F2F2"/>
</g>
<defs>
<clipPath id="clip0">
<rect width="52" height="52" fill="white"/>
</clipPath>
</defs>
</svg>
