<svg width="26" height="24" viewBox="0 0 26 24" fill="none" xmlns="http://www.w3.org/2000/svg">
<path fill-rule="evenodd" clip-rule="evenodd" d="M25.5 9.88366C25.5 10.3758 25.104 10.7748 24.6154 10.7748L24.6044 10.7525C24.3698 10.7525 24.1448 10.6586 23.9789 10.4915C23.813 10.3244 23.7198 10.0977 23.7198 9.86139V8.05693C23.6899 5.02443 21.2569 2.57349 18.2466 2.54332H7.75343C4.74313 2.57349 2.31014 5.02443 2.28019 8.05693V15.9431C2.31014 18.9756 4.74313 21.4265 7.75343 21.4567H18.2466C21.2569 21.4265 23.6899 18.9756 23.7198 15.9431C23.7704 15.4864 24.1537 15.1409 24.6099 15.1409C25.0661 15.1409 25.4494 15.4864 25.5 15.9431C25.4879 19.9735 22.2475 23.2378 18.2466 23.25H7.75343C3.74999 23.2439 0.506089 19.976 0.5 15.9431V8.05693C0.5 4.02142 3.74747 0.75 7.75343 0.75H18.2466C22.2475 0.762232 25.4879 4.0265 25.5 8.05693V9.88366ZM13.9232 11.8218L19.0648 7.67822H19.0758C19.4587 7.37164 20.0149 7.43114 20.3253 7.81188C20.4731 7.9975 20.5411 8.23499 20.5141 8.47143C20.4871 8.70787 20.3674 8.9236 20.1815 9.07054L15.04 13.2252C13.7327 14.285 11.8692 14.285 10.5619 13.2252L5.4093 9.07054C5.03134 8.75786 4.97227 8.19756 5.27661 7.81188C5.4221 7.62704 5.63517 7.50879 5.868 7.48366C6.10084 7.45853 6.33394 7.52862 6.515 7.67822L11.7118 11.8218C12.361 12.3349 13.2741 12.3349 13.9232 11.8218Z" fill="white"/>
</svg>
