<svg width="51" height="51" viewBox="0 0 51 51" fill="none" xmlns="http://www.w3.org/2000/svg">
<path d="M22.3237 30.2774L30.6185 25.5L22.3237 20.7227V30.2774Z" fill="#D83B5A"/>
<path d="M25.5 0C11.4189 0 0 11.4189 0 25.5C0 39.5811 11.4189 51 25.5 51C39.5811 51 51 39.5811 51 25.5C51 11.4189 39.5811 0 25.5 0ZM41.4336 25.5261C41.4336 25.5261 41.4336 30.6976 40.7776 33.1913C40.4099 34.5563 39.3336 35.6325 37.9687 35.9998C35.4749 36.6562 25.5 36.6562 25.5 36.6562C25.5 36.6562 15.5511 36.6562 13.0313 35.9738C11.6664 35.6065 10.5901 34.5298 10.2224 33.1649C9.566 30.6976 9.566 25.5 9.566 25.5C9.566 25.5 9.566 20.3289 10.2224 17.8351C10.5897 16.4702 11.6924 15.3675 13.0313 15.0002C15.5251 14.3438 25.5 14.3438 25.5 14.3438C25.5 14.3438 35.4749 14.3438 37.9687 15.0262C39.3336 15.3935 40.4099 16.4702 40.7776 17.8351C41.4601 20.3289 41.4336 25.5261 41.4336 25.5261Z" fill="#D83B5A"/>
</svg>
